<svg width="101" height="74" viewBox="0 0 101 74" fill="none" xmlns="http://www.w3.org/2000/svg">
<path d="M100.276 20.7955H82.9728C76.9214 8.97712 64.6499 0.868786 50.4602 0.868786C36.2718 0.868786 23.9991 8.97729 17.9477 20.7955H0.645447L10.6086 37.4011L0.645447 54.0068H17.9491C23.9991 65.8237 36.2719 73.9317 50.4616 73.9317C64.6515 73.9317 76.9228 65.8232 82.9742 54.0068H100.277L90.3126 37.4004L100.276 20.7955ZM95.2956 52.3453H79.7215C74.2751 62.9808 63.2303 70.2774 50.4611 70.2774C37.6909 70.2774 26.6446 62.9806 21.2007 52.3453H5.62668L14.5941 37.4006L5.62668 22.4551H21.2C26.6457 11.819 50.4622 40.7211 50.4622 40.7211C50.4622 40.7211 74.2751 11.8195 79.7226 22.4551H95.2966L86.3292 37.3999L95.2956 52.3453Z" fill="#E66969"/>
<path d="M52.1195 62.3078C52.1195 63.2243 51.3764 63.9674 50.4592 63.9674C49.5426 63.9674 48.7996 63.2243 48.7996 62.3078C48.7996 61.3906 49.5426 60.6475 50.4592 60.6475C51.3764 60.6475 52.1195 61.3906 52.1195 62.3078Z" fill="#E66969"/>
<path d="M78.5328 24.9694C74.8861 22.1873 66.9718 26.4327 60.8483 34.4504C54.7282 42.4701 52.7147 51.2219 56.3614 54.0076C60.006 56.7898 67.9245 52.5444 74.0451 44.5274C80.1659 36.5097 82.1772 27.7552 78.5328 24.9702V24.9694ZM70.0932 41.0167L66.7719 37.6947L67.3575 37.1077L70.6809 40.4297L70.0932 41.0167ZM73.4144 41.0167L66.7719 34.3742L67.3575 33.7872L74.0014 40.4304L73.4144 41.0167Z" fill="#E66969"/>
<path d="M40.0718 34.4506C33.9489 26.4328 26.0333 22.1874 22.3881 24.9696C18.7429 27.7546 20.7542 36.5084 26.8757 44.5269C32.9965 52.5446 40.9129 56.7886 44.5595 54.0071C48.2054 51.2221 46.1941 42.469 40.0718 34.4499V34.4506ZM30.8275 41.0188L30.2405 40.4297L33.5603 37.1099L34.1473 37.6969L30.8275 41.0188ZM27.5063 41.0188L26.9193 40.4297L33.5618 33.7885L34.1487 34.3755L27.5063 41.0188Z" fill="#E66969"/>
</svg>
