<svg width="100" height="101" viewBox="0 0 100 101" fill="none" xmlns="http://www.w3.org/2000/svg">
<path d="M37.4998 94.1556V100.4H12.4999V69.1564H0V44.1565H6.24461V62.9011H12.4999V56.6457H18.7552V94.1554L37.4998 94.1556ZM93.7554 44.1559V62.9005H87.5001V56.6451H81.2448V94.1548H62.5002V100.399H87.5001V69.1556H100V44.1557L93.7554 44.1559ZM87.5001 44.1559H93.7554V12.9002H87.5001V44.1559ZM87.5001 44.1559H81.2448V50.4005H87.5001V44.1559ZM68.7555 50.4005V44.1559H62.5002V50.4005H56.2449V44.1559H50.0003V50.4005H43.7557V44.1559H37.5004V50.4005H18.7558V56.6451H81.2456V50.4005H68.7555ZM62.5002 87.9003H68.7555V69.1558H62.5002V87.9003ZM68.7555 25.4007H62.5002V37.9006H68.7555V25.4007ZM37.4998 87.9003V94.1556H62.4996V87.9003H37.4998ZM62.4996 69.1558V62.9005H37.4998V69.1558H62.4996ZM37.4998 69.1558H31.2445V87.9003H37.4998V69.1558ZM37.4998 25.4001H31.2445V37.9H37.4998V25.4001ZM87.4995 12.9002V6.64484H74.9996V0.40023H68.755V6.64484H31.2453V0.40023H25.0006V6.64484H12.5007V12.9002H87.4995ZM12.4999 44.1559V50.4005H18.7552V44.1559H12.4999ZM12.4999 12.9002H6.24461V44.1559H12.4999V12.9002Z" fill="#E66969"/>
</svg>
