<svg width="79" height="129" viewBox="0 0 79 129" fill="none" xmlns="http://www.w3.org/2000/svg">
<path d="M15.4556 23.0298C10.0803 25.1626 5.97891 28.742 4.2017 32.8515C3.98608 33.351 4.21607 33.9287 4.71741 34.1461C5.21874 34.3617 5.79464 34.1317 6.01026 33.6331C7.57893 30.0007 11.2894 26.8042 16.1841 24.8625C22.36 22.4135 29.2851 22.3504 34.7062 24.6936C35.2075 24.9092 35.7879 24.6792 36.0062 24.1806C36.2192 23.681 35.9874 23.1015 35.4887 22.8859C29.5977 20.3371 22.1092 20.3918 15.4553 23.0297L15.4556 23.0298Z" fill="#E66969"/>
<path d="M5.58168 47.5731C5.58168 48.1166 6.02011 48.5577 6.56636 48.5577C7.10902 48.5577 7.55103 48.1166 7.55103 47.5731C7.55103 37.9804 17.309 25.8146 28.2789 25.8146C28.8206 25.8146 29.2635 25.3735 29.2635 24.8299C29.2635 24.2864 28.8197 23.8452 28.2789 23.8452C16.0539 23.8435 5.58154 36.8915 5.58154 47.572L5.58168 47.5731Z" fill="#E66969"/>
<path d="M9.07542 9.81626C8.60553 10.093 8.45281 10.6976 8.73401 11.1648C9.01162 11.632 9.61537 11.7847 10.0844 11.508C13.3996 9.53145 17.3257 9.04013 21.4388 10.0822C26.8599 11.4559 31.8122 15.3425 35.0295 20.7466C35.308 21.2138 35.9153 21.3665 36.3816 21.088C36.8506 20.8095 37.0006 20.2049 36.7248 19.7377C33.2399 13.8906 27.8464 9.67426 21.9204 8.17029C17.36 7.01581 12.7968 7.59803 9.07542 9.81626Z" fill="#E66969"/>
<path d="M0.310098 19.735C-0.0861233 20.1088 -0.104983 20.7323 0.266973 21.1276C0.639826 21.5238 1.26423 21.5445 1.66045 21.1707C11.1229 12.2709 20.5007 12.1871 32.0619 20.8967C32.4976 21.2237 33.1175 21.1375 33.4419 20.7026C33.7689 20.2687 33.6826 19.6497 33.246 19.3226C25.5005 13.4873 13.6529 7.18207 0.310098 19.735Z" fill="#E66969"/>
<path d="M4.88476 25.0515C4.573 25.4989 4.68531 26.1125 5.13094 26.4225C5.57746 26.7333 6.19379 26.6219 6.50015 26.1745C10.0831 21.0156 17.3667 18.9718 21.0108 19.775C21.5418 19.8927 22.0683 19.5567 22.1842 19.0257C22.3037 18.4938 21.9641 17.9682 21.434 17.8523C16.6974 16.8056 8.73542 19.5054 4.88476 25.0515Z" fill="#E66969"/>
<path d="M43.4949 23.2943C42.9927 23.5099 42.7636 24.0903 42.9774 24.5898C43.193 25.0893 43.7743 25.3184 44.2747 25.1028C53.8135 20.9817 67.6243 21.7246 75.1568 37.3871C75.3913 37.8759 75.9798 38.0834 76.4685 37.848C76.96 37.6126 77.1648 37.0224 76.9312 36.5336C68.7922 19.6134 53.8323 18.8273 43.4938 23.2944L43.4949 23.2943Z" fill="#E66969"/>
<path d="M49.7141 25.2424C49.7141 25.7859 50.1562 26.227 50.6988 26.227C61.6687 26.227 71.4266 38.3954 71.4266 47.9855C71.4266 48.5309 71.8687 48.9702 72.4113 48.9702C72.9567 48.9702 73.396 48.5308 73.396 47.9855C73.396 37.3041 62.922 24.2587 50.6987 24.2587C50.1578 24.2587 49.714 24.698 49.714 25.2434L49.7141 25.2424Z" fill="#E66969"/>
<path d="M56.5037 8.41556C50.8174 9.85844 45.8411 13.7414 42.5061 19.3477C42.2231 19.8149 42.3776 20.4213 42.8493 20.698C43.3138 20.9757 43.9212 20.8229 44.1988 20.3548C47.266 15.2005 51.8104 11.6374 56.9888 10.3229C61.1629 9.26546 65.3956 9.83149 68.8994 11.9177C69.3684 12.1962 69.9712 12.0434 70.2488 11.5762C70.5301 11.1091 70.3773 10.5053 69.9074 10.2259C65.9498 7.87023 61.189 7.22694 56.5037 8.41556Z" fill="#E66969"/>
<path d="M45.7305 19.735C45.2948 20.0621 45.2094 20.6793 45.5364 21.115C45.8635 21.549 46.4798 21.6361 46.9155 21.3091C58.4839 12.5997 67.8635 12.6832 77.3192 21.584C77.7155 21.9551 78.3399 21.938 78.7136 21.5409C79.0847 21.1446 79.0658 20.5211 78.6705 20.1474C65.3268 7.59445 53.4809 13.8997 45.7322 19.735L45.7305 19.735Z" fill="#E66969"/>
<path d="M54.0841 18.3281L52.7481 18.6551C52.2172 18.7854 51.8758 19.3227 52.0006 19.8519C52.1336 20.381 52.6439 20.709 53.1713 20.5796L54.5675 20.2382C59.1208 19.0765 66.7386 17.135 72.4454 26.5372C72.7257 27.0035 73.3339 27.1508 73.8002 26.8696C74.2665 26.5884 74.4111 25.9811 74.1308 25.5166C67.6667 14.863 58.8279 17.1178 54.0841 18.3281Z" fill="#E66969"/>
<path d="M40.0242 21.8437C40.0242 22.389 40.4626 22.8283 41.008 22.8283C41.5497 22.8283 41.9926 22.3872 41.9926 21.8437C41.9926 10.1424 49.1999 1.96935 59.5184 1.96935C60.0647 1.96935 60.5049 1.52821 60.5049 0.984676C60.5049 0.44114 60.0656 0 59.5193 0C48.0418 0 40.0242 8.98251 40.0242 21.8437Z" fill="#E66969"/>
<path d="M24.1473 1.34663C23.9568 1.85695 24.2156 2.42924 24.7277 2.61252C32.3823 5.43715 37.3255 13.3542 37.3255 22.7808C37.3255 23.3243 37.7675 23.7654 38.3101 23.7654C38.8555 23.7654 39.2948 23.3243 39.2948 22.7808C39.2948 12.5216 33.8484 3.88028 25.4122 0.763553C24.901 0.575778 24.3261 0.833609 24.1473 1.34663Z" fill="#E66969"/>
<path d="M44.3666 50.7356C44.3666 53.4146 42.3253 55.5863 39.808 55.5863C37.2906 55.5863 35.2503 53.4147 35.2503 50.7356C35.2503 48.0572 37.2907 45.8858 39.808 45.8858C42.3253 45.8858 44.3666 48.0573 44.3666 50.7356Z" fill="#E66969"/>
<path d="M60.5057 96.7149C68.0669 89.5444 72.8907 78.6562 72.8907 66.4653C72.8907 44.8669 57.7503 27.3561 39.0761 27.3561C20.4013 27.3561 5.26154 44.8657 5.26154 66.4653C5.26154 80.6229 11.7652 93.0234 21.509 99.8866C23.0148 100.948 20.3383 128.563 24.6669 128.8C27.3747 128.947 36.5811 101.961 39.6601 101.793C43.3833 101.592 56.0028 127.684 59.3619 127.036C63.8676 126.163 58.7626 98.3709 60.5056 96.7172L60.5057 96.7149ZM27.3144 46.6163C27.3144 41.1763 33.0402 36.7658 40.1063 36.7658C47.1689 36.7658 52.8955 41.1772 52.8955 46.6163C52.8955 52.0546 47.1696 56.4667 40.1063 56.4667C33.0391 56.4658 27.3144 52.0544 27.3144 46.6163ZM56.8073 89.0053C43.1421 90.1014 41.0758 76.879 40.9902 75.0813C40.8518 72.2557 41.2633 68.6565 39.1745 67.831C33.4127 65.5589 41.6037 63.4134 43.1661 64.0836C44.3089 64.5724 46.9395 65.5975 48.3807 66.7718C51.2504 69.1114 52.8629 71.9864 52.8629 71.9864C52.8629 71.9864 51.9977 69.7825 50.174 67.4241C48.8102 65.665 45.8875 64.0075 46.5082 63.5958C47.13 63.1834 53.3121 64.4358 56.3775 67.1168C64.362 74.1068 62.0682 88.5814 56.807 89.0055L56.8073 89.0053Z" fill="#E66969"/>
</svg>
