<svg width="98" height="101" viewBox="0 0 98 101" fill="none" xmlns="http://www.w3.org/2000/svg">
<path d="M35.7942 52.9057C35.9498 52.8715 36.106 52.8554 36.2616 52.8115C38.6144 52.0923 40.4098 50.1811 40.9812 47.7877C42.2298 47.4787 43.3989 46.9067 44.4096 46.1102C47.9559 43.2578 48.5629 38.825 45.9931 34.5428C45.6868 34.0322 45.1309 33.7239 44.5359 33.7344C43.9402 33.7441 43.3954 34.0713 43.1066 34.5924C42.8178 35.1127 42.8283 35.7482 43.1352 36.2588C44.1327 37.9203 45.352 41.074 42.3198 43.5133C40.6031 44.8114 38.3507 45.1623 36.3201 44.4494C28.6785 42.0122 21.2469 37.732 14.6915 33.9561C13.8942 33.5027 12.8813 33.779 12.4238 34.5735C11.9662 35.368 12.2362 36.3836 13.0286 36.8454C15.1463 38.0647 17.3625 39.3336 19.6427 40.5822C18.9417 41.9375 18.6578 43.4694 18.8259 44.9858C19.4314 49.1983 24.6072 51.3438 28.8406 52.4028C29.5702 52.5855 30.3152 52.7571 31.0679 52.8925C28.6886 54.2408 25.1995 54.2471 21.552 54.2471C18.0566 54.2841 14.6364 55.2669 11.6545 57.091C11.155 57.4196 10.869 57.9909 10.9067 58.5879C10.9437 59.1843 11.298 59.7159 11.8344 59.9796C12.3715 60.2439 13.0084 60.2 13.5037 59.8645C15.9367 58.4031 18.7144 57.6148 21.5519 57.58C26.7787 57.58 32.7015 57.58 35.7594 52.9923C35.7775 52.9651 35.7782 52.9337 35.795 52.9058L35.7942 52.9057ZM22.1244 44.5092C22.0518 43.6952 22.206 42.8763 22.5701 42.1446C26.6535 44.3285 30.9142 46.1617 35.308 47.6246C35.9462 47.822 36.6019 47.9587 37.2653 48.0334C36.8642 48.7895 36.1778 49.3552 35.3582 49.6035C33.4491 49.946 31.4841 49.7968 29.6487 49.169C25.2639 48.0724 22.3796 46.2881 22.1242 44.5093L22.1244 44.5092Z" fill="#E66969"/>
<path d="M77.005 54.2467C73.3575 54.2467 69.8698 54.2398 67.4898 52.8921C68.2425 52.7568 68.9875 52.5845 69.7172 52.4024C73.952 51.3436 79.1277 49.198 79.7332 44.9862C79.9007 43.4697 79.6168 41.938 78.9164 40.5819C81.1968 39.3333 83.4114 38.0644 85.5291 36.8451C86.3215 36.3833 86.5915 35.3677 86.1339 34.5731C85.6763 33.7786 84.6628 33.5024 83.8655 33.9558C77.3114 37.7317 69.8846 42.011 62.2369 44.449C60.2063 45.1619 57.954 44.8104 56.2372 43.5122C53.2051 41.0744 54.4256 37.9208 55.4232 36.2585C55.8975 35.4688 55.6415 34.4449 54.8519 33.9711C54.063 33.4975 53.039 33.7535 52.5653 34.5424C49.9955 38.8253 50.6024 43.2576 54.1473 46.1098C55.1581 46.9057 56.3272 47.4777 57.5757 47.7867C58.147 50.1799 59.9425 52.0911 62.2954 52.8111C62.4509 52.8551 62.6072 52.8704 62.7627 52.9053C62.7788 52.9332 62.7802 52.9646 62.7983 52.9918C65.8578 57.5795 71.7806 57.5795 77.0053 57.5795C79.8437 57.6241 82.6212 58.4124 85.0592 59.8668C85.8258 60.376 86.8603 60.1682 87.3696 59.4015C87.8795 58.6349 87.6716 57.6005 86.905 57.0906C83.9224 55.2665 80.5016 54.2837 77.0054 54.2467L77.005 54.2467ZM61.2914 48.033C61.9548 47.9583 62.6105 47.8223 63.2488 47.6249C67.6425 46.1622 71.9039 44.329 75.9866 42.1444C76.3515 42.8775 76.5056 43.6964 76.4324 44.5119C76.1785 46.2878 73.2941 48.0722 68.9093 49.1687C67.0727 49.7923 65.1084 49.9415 63.1986 49.6032C62.379 49.3542 61.6926 48.7891 61.2914 48.033Z" fill="#E66969"/>
<path d="M41.3068 58.4914C42.0943 58.0143 42.3447 56.9889 41.8676 56.2021C41.3905 55.4153 40.3658 55.1642 39.5783 55.6413C38.9289 56.0347 33.2795 59.6068 35.0554 63.9072C35.4956 65.1955 36.4945 66.2154 37.7738 66.6813C38.1673 66.8103 38.5788 66.8752 38.9925 66.8745C39.8037 66.8647 40.5996 66.6485 41.3041 66.246C42.0776 65.7766 42.3295 64.7721 41.8684 63.9937C41.4052 63.2083 40.3993 62.9355 39.6027 63.3799C39.3606 63.5159 39.0788 63.5626 38.8054 63.5124C38.4796 63.3136 38.2404 62.9997 38.135 62.6335C37.6203 61.3877 39.9466 59.3214 41.3068 58.4914Z" fill="#E66969"/>
<path d="M59.0496 55.6414C58.2621 55.1643 57.2375 55.4154 56.7604 56.2022C56.2832 56.989 56.5337 58.0144 57.3212 58.4915C58.6814 59.3216 61.0078 61.3878 60.493 62.6328C60.3876 62.9997 60.1484 63.3136 59.8226 63.5124C59.5589 63.5626 59.2862 63.5207 59.0497 63.3945C58.2622 62.9202 57.2389 63.1727 56.7631 63.9588C56.2874 64.7456 56.5385 65.769 57.324 66.2461C58.0285 66.6486 58.8244 66.8648 59.6356 66.8746C60.0492 66.876 60.4608 66.8104 60.8542 66.6821C62.1335 66.2154 63.1331 65.1949 63.5726 63.9066C65.3485 59.6076 59.6991 56.0348 59.0496 55.6414Z" fill="#E66969"/>
<path d="M52.7032 64.536C51.7964 64.5151 51.0361 65.2162 50.9831 66.1216C50.9538 66.5534 50.6392 67.0674 49.3145 67.0674C47.9962 67.0674 47.6788 66.5589 47.6481 66.1286C47.6251 65.2169 46.8731 64.4928 45.9607 64.504C45.0483 64.5151 44.3152 65.258 44.3145 66.1697C44.3759 67.4099 44.9486 68.5686 45.8966 69.3708C46.8438 70.1723 48.0819 70.5454 49.3146 70.401C50.5472 70.5454 51.7853 70.1723 52.7326 69.3708C53.6806 68.5686 54.2533 67.4101 54.3147 66.1704C54.3112 65.2782 53.5954 64.5521 52.7032 64.536Z" fill="#E66969"/>
<path d="M69.314 0.40023H29.3139C13.6728 0.417669 0.997777 13.0928 0.979919 28.7342V55.4003C0.979919 59.8236 2.30037 63.9062 7.67422 68.4312L5.4985 78.7995C4.45707 83.5427 6.25255 88.4606 10.1058 91.4159C15.606 95.514 26.2944 100.4 45.9791 100.4H52.6463C72.332 100.4 83.0195 95.514 88.5195 91.4159C92.3728 88.4604 94.1683 83.5427 93.1269 78.7995L90.9511 68.4312C96.3251 63.9062 97.6454 59.8236 97.6454 55.4003V28.7342C97.628 13.0931 84.9529 0.418088 69.3115 0.40023H69.314ZM89.8676 79.4843C90.6439 82.9566 89.343 86.565 86.5299 88.7436C82.452 91.7829 75.2081 95.2824 62.8602 96.5617C63.608 96.0985 64.3306 95.597 65.0247 95.0577C65.7466 94.4878 65.8708 93.4415 65.3023 92.7188C64.7338 91.9961 63.6882 91.8706 62.9641 92.437C59.4987 95.1609 55.2814 96.7575 50.8812 97.0115C50.7696 97.0177 50.6594 97.0366 50.552 97.0666H48.0882C47.9773 97.0366 47.8636 97.0184 47.7492 97.0115C43.349 96.7576 39.1317 95.1609 35.6663 92.437C34.9423 91.8706 33.8966 91.9961 33.3281 92.7188C32.7596 93.4415 32.8838 94.4878 33.6057 95.0577C34.3005 95.5969 35.0231 96.0985 35.7709 96.5617C23.4216 95.283 16.178 91.7827 12.0994 88.7436C9.28622 86.5652 7.98532 82.9568 8.76175 79.4843L10.613 70.6611C11.9502 71.5881 13.443 72.5354 15.1548 73.5141C15.4059 73.6578 15.6905 73.7338 15.98 73.7338L15.9814 73.7331V76.3503C15.9814 77.2703 16.7278 78.0167 17.6485 78.0167C18.5686 78.0167 19.315 77.2703 19.315 76.3503V71.2031C19.3094 70.6053 19.6295 70.0508 20.1513 69.7578C20.6166 69.5004 21.1767 69.4802 21.6594 69.702L24.6776 80.371C24.8311 80.9137 25.2489 81.3426 25.7881 81.5094C25.9479 81.5582 26.1139 81.5833 26.2813 81.5833C26.6712 81.5833 27.0493 81.4466 27.3485 81.1969L33.2853 76.2463C36.9244 77.8799 40.8677 78.7276 44.857 78.7338H53.773C57.7595 78.7282 61.6993 77.8814 65.3363 76.2499L71.2815 81.1969C71.5814 81.4466 71.9588 81.5833 72.3487 81.5833C72.5161 81.5833 72.6822 81.5582 72.8419 81.5094C73.3811 81.3426 73.7989 80.9137 73.9524 80.371L76.9706 69.702C77.4533 69.4795 78.0134 69.4997 78.4787 69.7578C79.0005 70.0508 79.3213 70.6053 79.3151 71.2031V76.3496C79.3151 77.2703 80.0614 78.0167 80.9822 78.0167C81.9022 78.0167 82.6486 77.2703 82.6486 76.3496V73.7331L82.65 73.7338C82.9395 73.7338 83.2241 73.6578 83.4752 73.5141C85.187 72.5354 86.6797 71.5882 88.017 70.6611L89.8676 79.4843ZM25.796 72.0827L30.0839 74.5841L27.1857 76.9927L25.796 72.0827ZM68.5515 74.5805L72.8336 72.0827L71.4441 76.9927L68.5515 74.5805ZM82.5184 70.2062C82.2094 68.6256 81.152 67.2939 79.6829 66.6334C78.2146 65.9735 76.5168 66.067 75.1293 66.8845L74.7854 67.0847C74.7638 67.0965 74.7443 67.1091 74.7227 67.1217L66.3696 71.9947C62.5457 74.224 58.1992 75.3986 53.7733 75.4001H44.8573C40.4314 75.3987 36.0849 74.2233 32.261 71.994L23.9003 67.1174L23.85 67.0881L23.5013 66.8844C22.1138 66.0669 20.4161 65.9734 18.9477 66.6333C17.4786 67.2939 16.4212 68.6254 16.1121 70.2062C5.26677 63.8431 4.31533 59.4011 4.31533 55.4001C4.31533 52.6977 6.05293 46.8447 7.56105 42.3343C7.61965 42.4731 7.6608 42.6029 7.72358 42.7438C7.99144 43.3465 8.58924 43.7343 9.24842 43.7343C9.48141 43.7343 9.7116 43.6848 9.92435 43.5892C10.7649 43.2153 11.1437 42.2311 10.7705 41.3899C6.61029 32.0295 12.5807 28.9067 13.2642 28.5872C13.8592 28.3187 14.2436 27.7278 14.2471 27.0749C14.2471 26.9836 14.3594 17.9315 19.4585 13.7776C22.1971 11.7588 25.7126 11.1158 28.9884 12.0344C44.395 15.1162 47.742 22.6259 47.767 22.6859L47.7802 22.7061C47.7997 22.7514 47.8381 22.7856 47.8611 22.8289C48.152 23.4022 48.7498 23.7538 49.3922 23.7287C50.0354 23.7036 50.6039 23.306 50.8494 22.7117L50.8564 22.7012C50.8885 22.6259 54.2353 15.116 69.6421 12.0344C72.9179 11.1158 76.4334 11.7589 79.172 13.7776C84.2711 17.9315 84.3834 26.9835 84.3834 27.0749C84.3869 27.7278 84.7712 28.3186 85.3669 28.5872C85.6453 28.7121 92.1373 31.7667 87.86 41.3899C87.4868 42.2312 87.8656 43.2155 88.7068 43.5892C88.9189 43.6848 89.1491 43.7343 89.382 43.7343C90.0412 43.7343 90.639 43.3465 90.9069 42.7438C90.9696 42.6029 91.0108 42.4731 91.0701 42.3336C92.5782 46.8433 94.3151 52.6963 94.3151 55.4001C94.3151 59.4011 93.3636 63.8431 82.5183 70.2062L82.5184 70.2062ZM94.3153 41.5276C93.4643 38.9739 92.7521 37.0432 92.5853 36.5946C93.059 32.4505 91.1623 28.3921 87.6794 26.0972C87.5085 23.3538 86.5564 15.5058 81.2893 11.2033C77.7903 8.52257 73.2444 7.62203 68.988 8.76542C57.1415 11.1351 51.6555 16.0017 49.3147 18.9733C46.9746 16.0017 41.4883 11.1349 29.6415 8.76542C24.6693 7.77142 20.5336 8.59243 17.3402 11.2033C12.0731 15.5058 11.1209 23.3538 10.95 26.0972C7.46716 28.3922 5.57055 32.4505 6.04412 36.5946C5.87741 37.0431 5.16521 38.9739 4.31421 41.5276V28.7333C4.32956 14.9324 15.5133 3.74934 29.3143 3.73327H69.3143C83.1152 3.74862 94.2983 14.9324 94.3144 28.7333L94.3153 41.5276Z" fill="#E66969"/>
</svg>
